<?xml version="1.0" encoding="UTF-8" standalone="no"?>
<!-- Generator: Adobe Illustrator 19.0.0, SVG Export Plug-In . SVG Version: 6.00 Build 0)  -->

<svg
   xmlns:dc="http://purl.org/dc/elements/1.1/"
   xmlns:cc="http://creativecommons.org/ns#"
   xmlns:rdf="http://www.w3.org/1999/02/22-rdf-syntax-ns#"
   xmlns:svg="http://www.w3.org/2000/svg"
   xmlns="http://www.w3.org/2000/svg"
   xmlns:sodipodi="http://sodipodi.sourceforge.net/DTD/sodipodi-0.dtd"
   xmlns:inkscape="http://www.inkscape.org/namespaces/inkscape"
   version="1.1"
   id="Capa_1"
   x="0px"
   y="0px"
   viewBox="0 0 25.349003 25.349003"
   xml:space="preserve"
   sodipodi:docname="board.svg"
   width="25.349003"
   height="25.349003"
   inkscape:version="0.92.4 (5da689c313, 2019-01-14)"><metadata
   id="metadata79"><rdf:RDF><cc:Work
       rdf:about=""><dc:format>image/svg+xml</dc:format><dc:type
         rdf:resource="http://purl.org/dc/dcmitype/StillImage" /><dc:title /></cc:Work></rdf:RDF></metadata><defs
   id="defs77" /><sodipodi:namedview
   pagecolor="#ffffff"
   bordercolor="#666666"
   borderopacity="1"
   objecttolerance="10"
   gridtolerance="10"
   guidetolerance="10"
   inkscape:pageopacity="0"
   inkscape:pageshadow="2"
   inkscape:window-width="1920"
   inkscape:window-height="995"
   id="namedview75"
   showgrid="false"
   fit-margin-top="0"
   fit-margin-left="0"
   fit-margin-right="0"
   fit-margin-bottom="0"
   inkscape:zoom="7.375"
   inkscape:cx="4.6141022"
   inkscape:cy="35.643329"
   inkscape:window-x="0"
   inkscape:window-y="28"
   inkscape:window-maximized="1"
   inkscape:current-layer="Capa_1" />
<g
   id="g6"
   transform="scale(0.04950977)"
   style="stroke:none;stroke-opacity:1;fill:#f04a3d;fill-opacity:1">
	<g
   id="g4"
   style="stroke:none;stroke-opacity:1;fill:#f04a3d;fill-opacity:1">
		<path
   d="M 497,0 H 15 C 6.716,0 0,6.716 0,15 v 482 c 0,8.284 6.716,15 15,15 h 482 c 8.284,0 15,-6.716 15,-15 V 15 C 512,6.716 505.284,0 497,0 Z M 482,482 H 30 V 30 h 452 z"
   id="path2"
   inkscape:connector-curvature="0"
   style="stroke:none;stroke-opacity:1;fill:#f04a3d;fill-opacity:1" />
	</g>
</g>
<g
   id="g12"
   transform="scale(0.04950977)"
   style="stroke:none;stroke-opacity:1;fill:#f04a3d;fill-opacity:1">
	<g
   id="g10"
   style="stroke:none;stroke-opacity:1;fill:#f04a3d;fill-opacity:1">
		<path
   d="M 216.974,330.026 H 90 c -8.284,0 -15,6.716 -15,15 V 432 c 0,8.284 6.716,15 15,15 h 126.974 c 8.284,0 15,-6.716 15,-15 v -86.974 c 0,-8.284 -6.716,-15 -15,-15 z M 138.487,417 H 105 v -56.974 h 33.487 z m 63.487,0 h -33.487 v -56.974 h 33.487 z"
   id="path8"
   inkscape:connector-curvature="0"
   style="stroke:none;stroke-opacity:1;fill:#f04a3d;fill-opacity:1" />
	</g>
</g>
<g
   id="g18"
   transform="scale(0.04950977)"
   style="stroke:none;stroke-opacity:1;fill:#f04a3d;fill-opacity:1">
	<g
   id="g16"
   style="stroke:none;stroke-opacity:1;fill:#f04a3d;fill-opacity:1">
		<path
   d="m 90,65 c -8.284,0 -15,6.716 -15,15 v 191 c 0,8.284 6.716,15 15,15 8.284,0 15,-6.716 15,-15 V 80 C 105,71.716 98.284,65 90,65 Z"
   id="path14"
   inkscape:connector-curvature="0"
   style="stroke:none;stroke-opacity:1;fill:#f04a3d;fill-opacity:1" />
	</g>
</g>
<g
   id="g24"
   transform="scale(0.04950977)"
   style="stroke:none;stroke-opacity:1;fill:#f04a3d;fill-opacity:1">
	<g
   id="g22"
   style="stroke:none;stroke-opacity:1;fill:#f04a3d;fill-opacity:1">
		<path
   d="m 153.487,65 c -8.284,0 -15,6.716 -15,15 v 191 c 0,8.284 6.716,15 15,15 8.284,0 15,-6.716 15,-15 V 80 c 0,-8.284 -6.716,-15 -15,-15 z"
   id="path20"
   inkscape:connector-curvature="0"
   style="stroke:none;stroke-opacity:1;fill:#f04a3d;fill-opacity:1" />
	</g>
</g>
<g
   id="g30"
   transform="scale(0.04950977)"
   style="stroke:none;stroke-opacity:1;fill:#f04a3d;fill-opacity:1">
	<g
   id="g28"
   style="stroke:none;stroke-opacity:1;fill:#f04a3d;fill-opacity:1">
		<path
   d="M 442,181.974 H 407 V 165 h 35 c 8.284,0 15,-6.716 15,-15 0,-8.284 -6.716,-15 -15,-15 h -35 v -5 c 0,-8.284 -6.716,-15 -15,-15 h -5 V 80 c 0,-8.284 -6.716,-15 -15,-15 -8.284,0 -15,6.716 -15,15 v 35 H 340.026 V 80 c 0,-8.284 -6.716,-15 -15,-15 -8.284,0 -15,6.716 -15,15 v 35 h -5 c -8.284,0 -15,6.716 -15,15 v 5 h -35 c -8.284,0 -15,6.716 -15,15 0,8.284 6.716,15 15,15 h 35 v 16.974 h -35 c -8.284,0 -15,6.716 -15,15 0,8.284 6.716,15 15,15 h 35 v 5 c 0,8.284 6.716,15 15,15 h 5 v 35 c 0,8.284 6.716,15 15,15 8.284,0 15,-6.716 15,-15 v -35 H 357 v 35 c 0,8.284 6.716,15 15,15 8.284,0 15,-6.716 15,-15 v -35 h 5 c 8.284,0 15,-6.716 15,-15 v -5 h 35 c 8.284,0 15,-6.716 15,-15 0,-8.284 -6.716,-15 -15,-15 z m -65,20 H 320.026 V 145 H 377 Z"
   id="path26"
   inkscape:connector-curvature="0"
   style="stroke:none;stroke-opacity:1;fill:#f04a3d;fill-opacity:1" />
	</g>
</g>
<g
   id="g36"
   transform="scale(0.04950977)"
   style="stroke:none;stroke-opacity:1;fill:#f04a3d;fill-opacity:1">
	<g
   id="g34"
   style="stroke:none;stroke-opacity:1;fill:#f04a3d;fill-opacity:1">
		<path
   d="m 392,330.026 h -86.974 c -8.284,0 -15,6.716 -15,15 0,8.284 6.716,15 15,15 H 392 c 8.284,0 15,-6.716 15,-15 0,-8.284 -6.716,-15 -15,-15 z"
   id="path32"
   inkscape:connector-curvature="0"
   style="stroke:none;stroke-opacity:1;fill:#f04a3d;fill-opacity:1" />
	</g>
</g>
<g
   id="g42"
   transform="scale(0.04950977)"
   style="stroke:none;stroke-opacity:1;fill:#f04a3d;fill-opacity:1">
	<g
   id="g40"
   style="stroke:none;stroke-opacity:1;fill:#f04a3d;fill-opacity:1">
		<path
   d="m 392,393.513 h -86.974 c -8.284,0 -15,6.716 -15,15 0,8.284 6.716,15 15,15 H 392 c 8.284,0 15,-6.716 15,-15 0,-8.284 -6.716,-15 -15,-15 z"
   id="path38"
   inkscape:connector-curvature="0"
   style="stroke:none;stroke-opacity:1;fill:#f04a3d;fill-opacity:1" />
	</g>
</g>
<g
   id="g44"
   transform="scale(0.04950977)">
</g>
<g
   id="g46"
   transform="scale(0.04950977)">
</g>
<g
   id="g48"
   transform="scale(0.04950977)">
</g>
<g
   id="g50"
   transform="scale(0.04950977)">
</g>
<g
   id="g52"
   transform="scale(0.04950977)">
</g>
<g
   id="g54"
   transform="scale(0.04950977)">
</g>
<g
   id="g56"
   transform="scale(0.04950977)">
</g>
<g
   id="g58"
   transform="scale(0.04950977)">
</g>
<g
   id="g60"
   transform="scale(0.04950977)">
</g>
<g
   id="g62"
   transform="scale(0.04950977)">
</g>
<g
   id="g64"
   transform="scale(0.04950977)">
</g>
<g
   id="g66"
   transform="scale(0.04950977)">
</g>
<g
   id="g68"
   transform="scale(0.04950977)">
</g>
<g
   id="g70"
   transform="scale(0.04950977)">
</g>
<g
   id="g72"
   transform="scale(0.04950977)">
</g>
</svg>