<?xml version="1.0" encoding="UTF-8" standalone="no"?>
<!-- Generator: Adobe Illustrator 19.0.0, SVG Export Plug-In . SVG Version: 6.00 Build 0)  -->

<svg
   xmlns:dc="http://purl.org/dc/elements/1.1/"
   xmlns:cc="http://creativecommons.org/ns#"
   xmlns:rdf="http://www.w3.org/1999/02/22-rdf-syntax-ns#"
   xmlns:svg="http://www.w3.org/2000/svg"
   xmlns="http://www.w3.org/2000/svg"
   xmlns:sodipodi="http://sodipodi.sourceforge.net/DTD/sodipodi-0.dtd"
   xmlns:inkscape="http://www.inkscape.org/namespaces/inkscape"
   version="1.1"
   id="Capa_1"
   x="0px"
   y="0px"
   viewBox="0 0 25.348999 25.348001"
   xml:space="preserve"
   sodipodi:docname="bullhorn.svg"
   width="25.348999"
   height="25.348001"
   inkscape:version="0.92.4 (5da689c313, 2019-01-14)"><metadata
   id="metadata130"><rdf:RDF><cc:Work
       rdf:about=""><dc:format>image/svg+xml</dc:format><dc:type
         rdf:resource="http://purl.org/dc/dcmitype/StillImage" /><dc:title /></cc:Work></rdf:RDF></metadata><defs
   id="defs128" /><sodipodi:namedview
   pagecolor="#ffffff"
   bordercolor="#666666"
   borderopacity="1"
   objecttolerance="10"
   gridtolerance="10"
   guidetolerance="10"
   inkscape:pageopacity="0"
   inkscape:pageshadow="2"
   inkscape:window-width="1920"
   inkscape:window-height="995"
   id="namedview126"
   showgrid="false"
   fit-margin-top="0"
   fit-margin-left="0"
   fit-margin-right="0"
   fit-margin-bottom="0"
   inkscape:zoom="5.2149125"
   inkscape:cx="1.4261583"
   inkscape:cy="22.62742"
   inkscape:window-x="0"
   inkscape:window-y="28"
   inkscape:window-maximized="1"
   inkscape:current-layer="Capa_1" />
<g
   id="g93"
   transform="matrix(0.0495467,0,0,0.04950894,-0.00881931,-5.7503062e-4)"
   style="stroke:none;stroke-opacity:1;fill:#f04a3d;fill-opacity:1">
	<g
   id="g91"
   style="stroke:none;stroke-opacity:1;fill:#f04a3d;fill-opacity:1">
		<g
   id="g89"
   style="stroke:none;stroke-opacity:1;fill:#f04a3d;fill-opacity:1">
			<path
   d="M 218.98,49.94 229.305,60.265 0.178,470.889 39.186,512 l 112.337,-62.065 11.35,21.219 c 7.75,14.49 20.717,24.963 36.513,29.49 5.522,1.583 11.131,2.365 16.706,2.365 10.374,0 20.617,-2.713 29.884,-8.038 l 77.917,-44.759 c 28.743,-16.51 38.736,-53.351 22.277,-82.125 l -11.168,-19.521 117.62,-64.984 9.763,9.763 28.39,-28.391 L 247.37,21.549 Z m 84.914,365.457 -77.918,44.76 c -4.749,2.728 -10.265,3.399 -15.53,1.89 -5.266,-1.509 -9.588,-5 -12.171,-9.831 l -11.598,-21.683 -1.287,0.689 114.465,-63.24 11.465,20.04 c 5.486,9.592 2.155,21.871 -7.426,27.375 z M 423.076,254.036 53.098,458.443 258.815,89.775 Z"
   id="path81"
   inkscape:connector-curvature="0"
   style="stroke:none;stroke-opacity:1;fill:#f04a3d;fill-opacity:1" />
			
				<rect
   x="404.56201"
   y="51.344002"
   transform="matrix(0.7071,0.7071,-0.7071,0.7071,186.0291,-274.7318)"
   width="40.150002"
   height="71.683998"
   id="rect83"
   style="stroke:none;stroke-opacity:1;fill:#f04a3d;fill-opacity:1" />
			
				<rect
   x="443.242"
   y="137.87399"
   transform="matrix(-0.9347,0.3556,-0.3556,-0.9347,975.1226,136.6898)"
   width="63.518002"
   height="40.150002"
   id="rect85"
   style="stroke:none;stroke-opacity:1;fill:#f04a3d;fill-opacity:1" />
			
				<rect
   x="333.79901"
   y="5.0630002"
   transform="matrix(0.9347,0.3556,-0.3556,0.9347,36.2181,-123.4197)"
   width="40.150002"
   height="63.519001"
   id="rect87"
   style="stroke:none;stroke-opacity:1;fill:#f04a3d;fill-opacity:1" />
		</g>
	</g>
</g>
<g
   id="g95"
   transform="translate(-0.178,-486.652)">
</g>
<g
   id="g97"
   transform="translate(-0.178,-486.652)">
</g>
<g
   id="g99"
   transform="translate(-0.178,-486.652)">
</g>
<g
   id="g101"
   transform="translate(-0.178,-486.652)">
</g>
<g
   id="g103"
   transform="translate(-0.178,-486.652)">
</g>
<g
   id="g105"
   transform="translate(-0.178,-486.652)">
</g>
<g
   id="g107"
   transform="translate(-0.178,-486.652)">
</g>
<g
   id="g109"
   transform="translate(-0.178,-486.652)">
</g>
<g
   id="g111"
   transform="translate(-0.178,-486.652)">
</g>
<g
   id="g113"
   transform="translate(-0.178,-486.652)">
</g>
<g
   id="g115"
   transform="translate(-0.178,-486.652)">
</g>
<g
   id="g117"
   transform="translate(-0.178,-486.652)">
</g>
<g
   id="g119"
   transform="translate(-0.178,-486.652)">
</g>
<g
   id="g121"
   transform="translate(-0.178,-486.652)">
</g>
<g
   id="g123"
   transform="translate(-0.178,-486.652)">
</g>
</svg>