<?xml version="1.0" encoding="UTF-8" standalone="no"?>
<svg
   xmlns:dc="http://purl.org/dc/elements/1.1/"
   xmlns:cc="http://creativecommons.org/ns#"
   xmlns:rdf="http://www.w3.org/1999/02/22-rdf-syntax-ns#"
   xmlns:svg="http://www.w3.org/2000/svg"
   xmlns="http://www.w3.org/2000/svg"
   xmlns:sodipodi="http://sodipodi.sourceforge.net/DTD/sodipodi-0.dtd"
   xmlns:inkscape="http://www.inkscape.org/namespaces/inkscape"
   width="21"
   height="20"
   viewBox="0 0 21 20"
   fill="none"
   version="1.1"
   id="svg16"
   sodipodi:docname="linkedin.svg"
   inkscape:version="0.92.4 (5da689c313, 2019-01-14)">
  <metadata
     id="metadata22">
    <rdf:RDF>
      <cc:Work
         rdf:about="">
        <dc:format>image/svg+xml</dc:format>
        <dc:type
           rdf:resource="http://purl.org/dc/dcmitype/StillImage" />
        <dc:title></dc:title>
      </cc:Work>
    </rdf:RDF>
  </metadata>
  <defs
     id="defs20" />
  <sodipodi:namedview
     pagecolor="#ffffff"
     bordercolor="#666666"
     borderopacity="1"
     objecttolerance="10"
     gridtolerance="10"
     guidetolerance="10"
     inkscape:pageopacity="0"
     inkscape:pageshadow="2"
     inkscape:window-width="1920"
     inkscape:window-height="995"
     id="namedview18"
     showgrid="false"
     inkscape:zoom="11.8"
     inkscape:cx="-3.0169492"
     inkscape:cy="6.6101695"
     inkscape:window-x="0"
     inkscape:window-y="28"
     inkscape:window-maximized="1"
     inkscape:current-layer="svg16" />
  <g
     id="g842"
     transform="matrix(0.03019839,0,0,0.02804664,2.6929416,2.9132805)"
     style="fill:#ffffff;fill-opacity:1">
    <path
       id="path2-6"
       d="M 475.07422,0 H 36.925781 C 16.53125,0 0,16.53125 0,36.925781 V 475.07422 C 0,495.46875 16.53125,512 36.925781,512 H 475.07422 C 495.46875,512 512,495.46875 512,475.07422 V 36.925781 C 512,16.53125 495.46875,0 475.07422,0 Z M 181.60937,387 H 119.26172 V 199.42578 h 62.34765 z M 150.4375,173.8125 h -0.40625 c -20.92188,0 -34.45312,-14.40234 -34.45312,-32.40234 0,-18.40625 13.94531,-32.41016 35.27343,-32.41016 21.32813,0 34.45313,14.00391 34.85938,32.41016 0,18 -13.53125,32.40234 -35.27344,32.40234 z M 406.42187,387 H 344.08203 V 286.65234 c 0,-25.21875 -9.02734,-42.41797 -31.58594,-42.41797 -17.22265,0 -27.48047,11.60157 -31.98828,22.80079 -1.64844,4.00781 -2.05078,9.60937 -2.05078,15.21484 V 387 h -62.34375 c 0,0 0.81641,-169.97656 0,-187.57422 h 62.34375 v 26.55859 c 8.28516,-12.78125 23.10938,-30.96093 56.1875,-30.96093 41.01953,0 71.77734,26.80859 71.77734,84.42187 z m 0,0"
       inkscape:connector-curvature="0"
       style="fill:#ffffff;fill-opacity:1" />
  </g>
</svg>
