<?xml version="1.0" encoding="UTF-8" standalone="no"?>
<svg
   xmlns:dc="http://purl.org/dc/elements/1.1/"
   xmlns:cc="http://creativecommons.org/ns#"
   xmlns:rdf="http://www.w3.org/1999/02/22-rdf-syntax-ns#"
   xmlns:svg="http://www.w3.org/2000/svg"
   xmlns="http://www.w3.org/2000/svg"
   xmlns:sodipodi="http://sodipodi.sourceforge.net/DTD/sodipodi-0.dtd"
   xmlns:inkscape="http://www.inkscape.org/namespaces/inkscape"
   height="25.348"
   viewBox="0 0 2.9705861 2.1783438"
   width="25.349001"
   version="1.1"
   id="svg141"
   sodipodi:docname="mask.svg"
   inkscape:version="0.92.4 (5da689c313, 2019-01-14)">
  <metadata
     id="metadata147">
    <rdf:RDF>
      <cc:Work
         rdf:about="">
        <dc:format>image/svg+xml</dc:format>
        <dc:type
           rdf:resource="http://purl.org/dc/dcmitype/StillImage" />
        <dc:title />
      </cc:Work>
    </rdf:RDF>
  </metadata>
  <defs
     id="defs145" />
  <sodipodi:namedview
     pagecolor="#ffffff"
     bordercolor="#666666"
     borderopacity="1"
     objecttolerance="10"
     gridtolerance="10"
     guidetolerance="10"
     inkscape:pageopacity="0"
     inkscape:pageshadow="2"
     inkscape:window-width="1920"
     inkscape:window-height="995"
     id="namedview143"
     showgrid="false"
     fit-margin-top="0"
     fit-margin-left="0"
     fit-margin-right="0"
     fit-margin-bottom="0"
     inkscape:zoom="14.75"
     inkscape:cx="12.867983"
     inkscape:cy="23.276241"
     inkscape:window-x="0"
     inkscape:window-y="28"
     inkscape:window-maximized="1"
     inkscape:current-layer="svg141" />
  <g
     id="Page-1"
     transform="matrix(0.04950977,0,0,0.05348238,0.00350471,-0.0940788)"
     style="fill:#f04a3d;fill-rule:evenodd;stroke:none;stroke-opacity:1;fill-opacity:1">
    <g
       id="022---Surgical-Mask"
       style="fill:#f04a3d;fill-rule:nonzero;stroke:none;stroke-opacity:1;fill-opacity:1">
      <path
         id="Shape"
         d="m 16.7,24.955 c 4.30511,1.34594 8.789399,2.031396 13.3,2.033 4.510601,-0.0016 8.99489,-0.68706 13.3,-2.033 0.341189,-0.106108 0.599852,-0.386178 0.678554,-0.73471 0.0787,-0.348532 -0.03451,-0.712576 -0.297,-0.955 C 43.419068,23.022866 43.047189,22.938892 42.706,23.045 c -8.27064,2.589997 -17.13536,2.589997 -25.406,0 -0.527432,-0.164029 -1.087971,0.130568 -1.252,0.658 -0.164029,0.527432 0.130568,1.087971 0.658,1.252 z"
         inkscape:connector-curvature="0"
         style="stroke:none;stroke-opacity:1;fill:#f04a3d;fill-opacity:1" />
      <path
         id="path133"
         d="m 16.846,18.988 c 4.352276,0.673067 8.749989,1.009398 13.154,1.006 4.404011,0.0034 8.801724,-0.332933 13.154,-1.006 0.35642,-0.05124 0.657769,-0.290153 0.78896,-0.625489 0.131191,-0.335336 0.07196,-0.715311 -0.155062,-0.994812 -0.227026,-0.2795 -0.58679,-0.415362 -0.941898,-0.355699 -8.513904,1.309996 -17.178096,1.309996 -25.692,0 -0.542096,-0.07794 -1.046031,0.294676 -1.130378,0.835811 -0.08435,0.541136 0.282278,1.049445 0.822378,1.140189 z"
         inkscape:connector-curvature="0"
         style="stroke:none;stroke-opacity:1;fill:#f04a3d;fill-opacity:1" />
      <path
         id="path135"
         d="m 42.569,30.1 c -7.931322,3.875066 -17.206678,3.875066 -25.138,0 -0.325062,-0.182583 -0.724704,-0.169171 -1.036794,0.03479 -0.31209,0.203965 -0.484799,0.56461 -0.44806,0.935625 0.03674,0.371015 0.276823,0.690784 0.622854,0.829581 8.475416,4.140164 18.386584,4.140164 26.862,0 0.346031,-0.138797 0.586116,-0.458566 0.622854,-0.829581 0.03674,-0.371015 -0.13597,-0.73166 -0.44806,-0.935625 C 43.293704,29.930829 42.894062,29.917417 42.569,30.1 Z"
         inkscape:connector-curvature="0"
         style="stroke:none;stroke-opacity:1;fill:#f04a3d;fill-opacity:1" />
      <path
         id="path137"
         d="M 56,10 H 50.816 C 50.393745,8.8056491 49.266785,8.0052514 48,8 H 46.49 C 42.776193,7.9515028 39.281866,6.2324393 36.977,3.32 35.269458,1.2205408 32.707184,0.00175431 30.001,0.00175431 27.294816,0.00175431 24.732542,1.2205408 23.025,3.32 20.719602,6.2328647 17.224477,7.9519593 13.51,8 H 12 C 10.733215,8.00525 9.6062546,8.8056491 9.184,10 H 4 c -2.209139,0 -4,1.790861 -4,4 v 5 c 0,5.256 4.706,10.093 10.418,10.881 2.820062,7.708038 9.772611,13.145859 17.933,14.026 1.096501,0.124073 2.203499,0.124073 3.3,0 C 39.810638,43.026138 46.762253,37.588441 49.582,29.881 55.294,29.093 60,24.256 60,19 v -5 c 0,-2.209139 -1.790861,-4 -4,-4 z m -44,0 h 1.51 c 4.316916,-0.048132 8.382278,-2.0391199 11.067,-5.42 1.327338,-1.6332405 3.319909,-2.5814969 5.4245,-2.5814969 2.10459,0 4.097162,0.9482564 5.4245,2.5814969 2.683693,3.3805275 6.748004,5.3715402 11.064,5.42 H 48 c 0.552285,0 1,0.447715 1,1 v 1 L 46,11.995 H 45.98 C 41.22358,11.867083 36.776834,9.6069897 33.87,5.84 32.921316,4.6740448 31.497503,3.9979716 29.994357,3.9997179 28.49121,4.0014642 27.068972,4.6808437 26.123,5.849 c -2.905621,3.7616464 -7.348512,6.017607 -12.1,6.144 H 14 L 11,12 v -1 c 0,-0.552285 0.447715,-1 1,-1 z M 2,19 v -5 c 0,-1.104569 0.8954305,-2 2,-2 h 5 v 10 c 0.00316,1.931638 0.2535302,3.854928 0.745,5.723 C 5.772,26.766 2,23.372 2,19 Z m 29.442,22.918 c -0.9583,0.108001 -1.9257,0.108001 -2.884,0 C 20.959792,41.088619 14.53997,35.911129 12.12,28.661 v -0.01 C 11.382022,26.511041 11.003567,24.263631 11,22 v -8 l 3,-0.005 C 19.365352,13.890422 24.394164,11.359652 27.675,7.113 28.241523,6.4118208 29.094152,6.0036574 29.995594,6.0021049 30.897036,6.0005523 31.751065,6.4057764 32.32,7.105 c 3.28534,4.23263 8.300468,6.762778 13.657,6.89 H 46 L 49,14 v 8 c -0.0028,2.262791 -0.38026,4.509503 -1.117,6.649 v 0.01 C 45.463219,35.91082 39.041845,41.089397 31.442,41.918 Z M 58,19 c 0,4.372 -3.772,7.766 -7.745,8.725 C 50.746639,25.856281 50.997008,23.932307 51,22 V 12 h 5 c 1.104569,0 2,0.895431 2,2 z"
         inkscape:connector-curvature="0"
         style="stroke:none;stroke-opacity:1;fill:#f04a3d;fill-opacity:1" />
    </g>
  </g>
  <rect
     id="rect149"
     width="2.9705861"
     height="3.2088163"
     x="0"
     y="-0.52879357"
     style="fill:none;stroke-width:0.08704142" />
</svg>
