<?xml version="1.0" encoding="UTF-8" standalone="no"?>
<svg
   xmlns:dc="http://purl.org/dc/elements/1.1/"
   xmlns:cc="http://creativecommons.org/ns#"
   xmlns:rdf="http://www.w3.org/1999/02/22-rdf-syntax-ns#"
   xmlns:svg="http://www.w3.org/2000/svg"
   xmlns="http://www.w3.org/2000/svg"
   xmlns:sodipodi="http://sodipodi.sourceforge.net/DTD/sodipodi-0.dtd"
   xmlns:inkscape="http://www.inkscape.org/namespaces/inkscape"
   width="21"
   height="20"
   viewBox="0 0 21 20"
   fill="none"
   version="1.1"
   id="svg16"
   sodipodi:docname="mastodon.svg"
   inkscape:version="0.92.4 (5da689c313, 2019-01-14)">
  <metadata
     id="metadata22">
    <rdf:RDF>
      <cc:Work
         rdf:about="">
        <dc:format>image/svg+xml</dc:format>
        <dc:type
           rdf:resource="http://purl.org/dc/dcmitype/StillImage" />
        <dc:title />
      </cc:Work>
    </rdf:RDF>
  </metadata>
  <defs
     id="defs20" />
  <sodipodi:namedview
     pagecolor="#ffffff"
     bordercolor="#666666"
     borderopacity="1"
     objecttolerance="10"
     gridtolerance="10"
     guidetolerance="10"
     inkscape:pageopacity="0"
     inkscape:pageshadow="2"
     inkscape:window-width="1920"
     inkscape:window-height="995"
     id="namedview18"
     showgrid="false"
     inkscape:zoom="11.8"
     inkscape:cx="-3.0169492"
     inkscape:cy="10"
     inkscape:window-x="0"
     inkscape:window-y="28"
     inkscape:window-maximized="1"
     inkscape:current-layer="svg16" />
  <path
     style="fill:#ffffff;stroke-width:0.06619151"
     d="M 10.365234 2.6386719 C 8.3536575 2.6543383 6.4186652 2.8621388 5.2910156 3.3554688 C 5.2910156 3.3554688 3.0546875 4.3070895 3.0546875 7.5585938 C 3.0546875 8.3031515 3.0396991 9.1945701 3.0644531 10.138672 C 3.1456656 13.318467 3.6774284 16.452317 6.7636719 17.230469 C 8.1866705 17.589262 9.408619 17.664801 10.392578 17.613281 C 12.176964 17.51904 13.177734 17.005859 13.177734 17.005859 L 13.119141 15.773438 C 13.119141 15.773438 11.844178 16.156055 10.412109 16.109375 C 8.9932646 16.063022 7.4951053 15.964114 7.265625 14.304688 C 7.244432 14.158926 7.234375 14.00158 7.234375 13.837891 C 7.234375 13.837891 8.6274362 14.163194 10.392578 14.240234 C 11.471907 14.287395 12.483677 14.179352 13.511719 14.0625 C 15.483198 13.838245 17.200269 12.680368 17.416016 11.623047 C 17.755956 9.9574831 17.726562 7.5585938 17.726562 7.5585938 C 17.726562 4.3070895 15.490234 3.3554688 15.490234 3.3554688 C 14.362669 2.8621387 12.427593 2.6543379 10.416016 2.6386719 L 10.365234 2.6386719 z M 8.0898438 5.1796875 C 8.9277395 5.1796875 9.5628806 5.485955 9.9824219 6.0996094 L 10.388672 6.75 L 10.796875 6.0996094 C 11.216331 5.485955 11.851473 5.1796875 12.689453 5.1796875 C 13.413583 5.1796875 13.99584 5.4214706 14.441406 5.8945312 C 14.873325 6.3675919 15.089844 7.0078609 15.089844 7.8125 L 15.089844 11.748047 L 13.451172 11.748047 L 13.451172 7.9277344 C 13.451172 7.122207 13.096435 6.7128906 12.384766 6.7128906 C 11.597904 6.7128906 11.203125 7.1972081 11.203125 8.15625 L 11.203125 10.248047 L 9.5761719 10.248047 L 9.5761719 8.15625 C 9.5761719 7.1972081 9.1813937 6.7128906 8.3945312 6.7128906 C 7.6828625 6.7128906 7.3261719 7.122207 7.3261719 7.9277344 L 7.3261719 11.748047 L 5.6894531 11.748047 L 5.6894531 7.8125 C 5.6894531 7.0078609 5.9039346 6.3675919 6.3359375 5.8945312 C 6.7814193 5.4214706 7.3656286 5.1796875 8.0898438 5.1796875 z "
     id="path2" />
</svg>
