<?xml version="1.0" encoding="UTF-8" standalone="no"?>
<svg
   xmlns:dc="http://purl.org/dc/elements/1.1/"
   xmlns:cc="http://creativecommons.org/ns#"
   xmlns:rdf="http://www.w3.org/1999/02/22-rdf-syntax-ns#"
   xmlns:svg="http://www.w3.org/2000/svg"
   xmlns="http://www.w3.org/2000/svg"
   xmlns:sodipodi="http://sodipodi.sourceforge.net/DTD/sodipodi-0.dtd"
   xmlns:inkscape="http://www.inkscape.org/namespaces/inkscape"
   width="26"
   height="26"
   viewBox="0 0 26 26"
   fill="none"
   version="1.1"
   id="svg83"
   sodipodi:docname="private.svg"
   inkscape:version="0.92.4 (5da689c313, 2019-01-14)">
  <metadata
     id="metadata89">
    <rdf:RDF>
      <cc:Work
         rdf:about="">
        <dc:format>image/svg+xml</dc:format>
        <dc:type
           rdf:resource="http://purl.org/dc/dcmitype/StillImage" />
      </cc:Work>
    </rdf:RDF>
  </metadata>
  <defs
     id="defs87" />
  <sodipodi:namedview
     pagecolor="#ffffff"
     bordercolor="#666666"
     borderopacity="1"
     objecttolerance="10"
     gridtolerance="10"
     guidetolerance="10"
     inkscape:pageopacity="0"
     inkscape:pageshadow="2"
     inkscape:window-width="1920"
     inkscape:window-height="995"
     id="namedview85"
     showgrid="false"
     inkscape:zoom="9.0769231"
     inkscape:cx="-5.0127119"
     inkscape:cy="13"
     inkscape:window-x="0"
     inkscape:window-y="28"
     inkscape:window-maximized="1"
     inkscape:current-layer="svg83" />
  <path
     d="M15.2967 15.2967C14.9991 15.616 14.6403 15.8721 14.2417 16.0497C13.843 16.2274 13.4126 16.3229 12.9763 16.3306C12.5399 16.3383 12.1064 16.258 11.7017 16.0945C11.2971 15.9311 10.9294 15.6878 10.6208 15.3792C10.3122 15.0706 10.0689 14.7029 9.90546 14.2983C9.742 13.8936 9.66173 13.4601 9.66943 13.0237C9.67713 12.5874 9.77265 12.157 9.95028 11.7583C10.1279 11.3597 10.384 11.0009 10.7033 10.7033M19.435 19.435C17.5831 20.8466 15.3282 21.6286 13 21.6667C5.41666 21.6667 1.08333 13 1.08333 13C2.43088 10.4887 4.29989 8.29467 6.56499 6.56501L19.435 19.435ZM10.725 4.59334C11.4707 4.41879 12.2341 4.33154 13 4.33334C20.5833 4.33334 24.9167 13 24.9167 13C24.2591 14.2302 23.4748 15.3885 22.5767 16.4558L10.725 4.59334Z"
     stroke="#0A1C29"
     stroke-width="1.5"
     stroke-linecap="round"
     stroke-linejoin="round"
     id="path79"
     style="fill:none;fill-opacity:1;stroke:#f04a3d;stroke-opacity:1" />
  <path
     d="M1.08333 1.08331L24.9167 24.9166"
     stroke="#0A1C29"
     stroke-width="1.5"
     stroke-linecap="round"
     stroke-linejoin="round"
     id="path81"
     style="fill:none;fill-opacity:1;stroke:#f04a3d;stroke-opacity:1" />
</svg>
