<?xml version="1.0" encoding="UTF-8" standalone="no"?>
<svg
   xmlns:dc="http://purl.org/dc/elements/1.1/"
   xmlns:cc="http://creativecommons.org/ns#"
   xmlns:rdf="http://www.w3.org/1999/02/22-rdf-syntax-ns#"
   xmlns:svg="http://www.w3.org/2000/svg"
   xmlns="http://www.w3.org/2000/svg"
   xmlns:sodipodi="http://sodipodi.sourceforge.net/DTD/sodipodi-0.dtd"
   xmlns:inkscape="http://www.inkscape.org/namespaces/inkscape"
   width="229"
   height="51"
   viewBox="0 0 229 51"
   fill="none"
   version="1.1"
   id="svg78"
   sodipodi:docname="text-annotation01.svg"
   inkscape:version="0.92.4 (5da689c313, 2019-01-14)">
  <metadata
     id="metadata84">
    <rdf:RDF>
      <cc:Work
         rdf:about="">
        <dc:format>image/svg+xml</dc:format>
        <dc:type
           rdf:resource="http://purl.org/dc/dcmitype/StillImage" />
      </cc:Work>
    </rdf:RDF>
  </metadata>
  <defs
     id="defs82" />
  <sodipodi:namedview
     pagecolor="#ffffff"
     bordercolor="#666666"
     borderopacity="1"
     objecttolerance="10"
     gridtolerance="10"
     guidetolerance="10"
     inkscape:pageopacity="0"
     inkscape:pageshadow="2"
     inkscape:window-width="1920"
     inkscape:window-height="995"
     id="namedview80"
     showgrid="false"
     inkscape:zoom="1.5720524"
     inkscape:cx="240.84514"
     inkscape:cy="25.5"
     inkscape:window-x="0"
     inkscape:window-y="28"
     inkscape:window-maximized="1"
     inkscape:current-layer="svg78" />
  <path
     d="M1.30072 38.2708C1.13255 41.7729 0.964421 45.2751 0.796254 48.7772C0.764809 49.4321 1.46637 50.6924 2.31776 50.2373C5.40423 48.5878 8.49072 46.9382 11.5772 45.2886C12.9086 44.5771 12.3722 41.5887 10.9296 42.3597C9.0782 43.3492 7.22679 44.3386 5.37534 45.3281C6.61346 43.1089 8.53672 41.0784 10.3189 39.4738C18.9853 31.6707 41.6487 21.0165 52.8745 19.3825C54.2268 19.1856 55.1451 17.1477 53.4479 17.3948C41.5938 19.1203 18.2339 29.2357 9.1343 37.4958C7.07804 39.3623 4.86421 41.713 3.40491 44.3263C3.50197 42.3049 3.59903 40.2835 3.69609 38.2622C3.78776 36.3521 1.39154 36.3788 1.30072 38.2708Z"
     fill="#0A1C29"
     id="path2" />
  <path
     inkscape:connector-curvature="0"
     id="path901"
     style="font-style:normal;font-weight:normal;font-size:12.46911621px;line-height:1.25;font-family:sans-serif;letter-spacing:0px;word-spacing:0px;fill:#000000;fill-opacity:1;stroke:none;stroke-width:0.31172791"
     d="m 71.637458,4.5181223 v 1.2968368 q -0.62102,-0.5784014 -1.327279,-0.8645579 -0.70017,-0.2861564 -1.491667,-0.2861564 -1.558639,0 -2.386666,0.9558844 -0.828028,0.9497959 -0.828028,2.7519729 0,1.7960889 0.828028,2.7519729 0.828027,0.949796 2.386666,0.949796 0.791497,0 1.491667,-0.286157 0.706259,-0.286156 1.327279,-0.864557 v 1.28466 q -0.645374,0.438367 -1.369898,0.657551 -0.718435,0.219183 -1.522109,0.219183 -2.063979,0 -3.251224,-1.260306 -1.187245,-1.266395 -1.187245,-3.4521429 0,-2.1918369 1.187245,-3.452143 1.187245,-1.2663946 3.251224,-1.2663946 0.815851,0 1.534286,0.2191836 0.724524,0.2130953 1.357721,0.6453742 z" />
  <path
     inkscape:connector-curvature="0"
     id="path903"
     style="font-style:normal;font-weight:normal;font-size:12.46911621px;line-height:1.25;font-family:sans-serif;letter-spacing:0px;word-spacing:0px;fill:#000000;fill-opacity:1;stroke:none;stroke-width:0.31172791"
     d="M 79.168853,8.7922041 V 12.907987 H 78.04858 V 8.8287348 q 0,-0.9680613 -0.377483,-1.4490477 -0.377483,-0.4809864 -1.132449,-0.4809864 -0.907177,0 -1.430782,0.5784013 -0.523605,0.5784014 -0.523605,1.5769049 V 12.907987 H 73.4579 V 3.4343808 h 1.126361 v 3.7139457 q 0.401836,-0.614932 0.943707,-0.9193538 0.547959,-0.3044217 1.260306,-0.3044217 1.175068,0 1.777823,0.7306122 0.602756,0.7245239 0.602756,2.1370409 z" />
  <path
     inkscape:connector-curvature="0"
     id="path905"
     style="font-style:normal;font-weight:normal;font-size:12.46911621px;line-height:1.25;font-family:sans-serif;letter-spacing:0px;word-spacing:0px;fill:#000000;fill-opacity:1;stroke:none;stroke-width:0.31172791"
     d="M 87.248207,9.2183946 V 9.7663538 H 82.09739 q 0.07306,1.1568032 0.694082,1.7656462 0.627109,0.602755 1.741293,0.602755 0.645374,0 1.248129,-0.158299 0.608843,-0.158299 1.20551,-0.474898 v 1.059388 q -0.602755,0.255714 -1.235952,0.38966 -0.633198,0.133945 -1.28466,0.133945 -1.631701,0 -2.587585,-0.949796 -0.949796,-0.949796 -0.949796,-2.5693195 0,-1.6743198 0.901088,-2.654558 0.907177,-0.9863265 2.441463,-0.9863265 1.375986,0 2.173571,0.8889116 0.803674,0.8828231 0.803674,2.404932 z M 86.127935,8.8896191 q -0.01218,-0.9193538 -0.517517,-1.467313 -0.499252,-0.5479592 -1.327279,-0.5479592 -0.937619,0 -1.503844,0.5296939 -0.560136,0.5296939 -0.645374,1.4916667 z" />
  <path
     inkscape:connector-curvature="0"
     id="path907"
     style="font-style:normal;font-weight:normal;font-size:12.46911621px;line-height:1.25;font-family:sans-serif;letter-spacing:0px;word-spacing:0px;fill:#000000;fill-opacity:1;stroke:none;stroke-width:0.31172791"
     d="m 93.994193,6.3507414 v 1.047211 Q 93.519295,7.1361496 93.038309,7.0082925 92.563411,6.8743469 92.076336,6.8743469 q -1.08983,0 -1.692585,0.6940817 -0.602755,0.6879932 -0.602755,1.9361225 0,1.2481289 0.602755,1.9422109 0.602755,0.687993 1.692585,0.687993 0.487075,0 0.961973,-0.127857 0.480986,-0.133945 0.955884,-0.395748 v 1.035034 q -0.468809,0.219184 -0.974149,0.328775 -0.499252,0.109592 -1.065477,0.109592 -1.540374,0 -2.447551,-0.968061 -0.907177,-0.968061 -0.907177,-2.6119389 0,-1.6682314 0.913266,-2.6241158 0.919354,-0.9558843 2.514524,-0.9558843 0.517517,0 1.01068,0.1095918 0.493163,0.1035034 0.955884,0.3165986 z" />
  <path
     inkscape:connector-curvature="0"
     id="path909"
     style="font-style:normal;font-weight:normal;font-size:12.46911621px;line-height:1.25;font-family:sans-serif;letter-spacing:0px;word-spacing:0px;fill:#000000;fill-opacity:1;stroke:none;stroke-width:0.31172791"
     d="m 95.912051,3.4343808 h 1.126361 v 5.5952723 l 3.342548,-2.9407144 h 1.43079 l -3.616536,3.1903403 3.768746,3.628708 h -1.46123 L 97.038412,9.5776123 v 3.3303747 h -1.126361 z" />
  <path
     inkscape:connector-curvature="0"
     id="path911"
     style="font-style:normal;font-weight:normal;font-size:12.46911621px;line-height:1.25;font-family:sans-serif;letter-spacing:0px;word-spacing:0px;fill:#000000;fill-opacity:1;stroke:none;stroke-width:0.31172791"
     d="m 109.79977,6.8743469 q -0.90109,0 -1.42469,0.7062585 -0.52361,0.7001701 -0.52361,1.9239457 0,1.2237759 0.51752,1.9300339 0.5236,0.70017 1.43078,0.70017 0.895,0 1.41861,-0.706258 0.5236,-0.706259 0.5236,-1.9239459 0,-1.2115987 -0.5236,-1.9178572 -0.52361,-0.712347 -1.41861,-0.712347 z m 0,-0.9497959 q 1.46123,0 2.29534,0.9497959 0.83412,0.949796 0.83412,2.6302042 0,1.6743199 -0.83412,2.6302039 -0.83411,0.949796 -2.29534,0.949796 -1.46731,0 -2.30143,-0.949796 -0.82802,-0.955884 -0.82802,-2.6302039 0,-1.6804082 0.82802,-2.6302042 0.83412,-0.9497959 2.30143,-0.9497959 z" />
  <path
     inkscape:connector-curvature="0"
     id="path913"
     style="font-style:normal;font-weight:normal;font-size:12.46911621px;line-height:1.25;font-family:sans-serif;letter-spacing:0px;word-spacing:0px;fill:#000000;fill-opacity:1;stroke:none;stroke-width:0.31172791"
     d="M 114.66443,10.216898 V 6.0889387 h 1.12028 v 4.0853403 q 0,0.968061 0.37748,1.455136 0.37748,0.480987 1.13245,0.480987 0.90717,0 1.43078,-0.578402 0.52969,-0.578401 0.52969,-1.5769046 V 6.0889387 h 1.12028 v 6.8190483 h -1.12028 v -1.047211 q -0.40792,0.62102 -0.94979,0.925442 -0.53578,0.298333 -1.24813,0.298333 -1.17507,0 -1.78391,-0.730612 -0.60885,-0.730612 -0.60885,-2.137041 z m 2.81895,-4.292347 z" />
  <path
     inkscape:connector-curvature="0"
     id="path915"
     style="font-style:normal;font-weight:normal;font-size:12.46911621px;line-height:1.25;font-family:sans-serif;letter-spacing:0px;word-spacing:0px;fill:#000000;fill-opacity:1;stroke:none;stroke-width:0.31172791"
     d="m 123.80318,4.1528162 v 1.9361225 h 2.30751 V 6.959585 h -2.30751 v 3.701769 q 0,0.834116 0.22527,1.071565 0.23136,0.237449 0.93153,0.237449 h 1.15071 v 0.937619 h -1.15071 q -1.29684,0 -1.79,-0.480987 -0.49317,-0.487075 -0.49317,-1.765646 V 6.959585 h -0.82193 V 6.0889387 h 0.82193 V 4.1528162 Z" />
  <path
     inkscape:connector-curvature="0"
     id="path917"
     style="font-style:normal;font-weight:normal;font-size:12.46911621px;line-height:1.25;font-family:sans-serif;letter-spacing:0px;word-spacing:0px;fill:#000000;fill-opacity:1;stroke:none;stroke-width:0.31172791"
     d="m 132.66794,4.1528162 v 1.9361225 h 2.30751 V 6.959585 h -2.30751 v 3.701769 q 0,0.834116 0.22527,1.071565 0.23136,0.237449 0.93153,0.237449 h 1.15071 v 0.937619 h -1.15071 q -1.29684,0 -1.79,-0.480987 -0.49316,-0.487075 -0.49316,-1.765646 V 6.959585 h -0.82194 V 6.0889387 h 0.82194 V 4.1528162 Z" />
  <path
     inkscape:connector-curvature="0"
     id="path919"
     style="font-style:normal;font-weight:normal;font-size:12.46911621px;line-height:1.25;font-family:sans-serif;letter-spacing:0px;word-spacing:0px;fill:#000000;fill-opacity:1;stroke:none;stroke-width:0.31172791"
     d="m 142.12328,8.7922041 v 4.1157829 h -1.12027 V 8.8287348 q 0,-0.9680613 -0.37749,-1.4490477 -0.37748,-0.4809864 -1.13245,-0.4809864 -0.90717,0 -1.43078,0.5784013 -0.5236,0.5784014 -0.5236,1.5769049 v 3.8539801 h -1.12636 V 3.4343808 h 1.12636 v 3.7139457 q 0.40183,-0.614932 0.9437,-0.9193538 0.54796,-0.3044217 1.26031,-0.3044217 1.17507,0 1.77782,0.7306122 0.60276,0.7245239 0.60276,2.1370409 z" />
  <path
     inkscape:connector-curvature="0"
     id="path921"
     style="font-style:normal;font-weight:normal;font-size:12.46911621px;line-height:1.25;font-family:sans-serif;letter-spacing:0px;word-spacing:0px;fill:#000000;fill-opacity:1;stroke:none;stroke-width:0.31172791"
     d="m 150.20263,9.2183946 v 0.5479592 h -5.15082 q 0.0731,1.1568032 0.69408,1.7656462 0.62711,0.602755 1.7413,0.602755 0.64537,0 1.24813,-0.158299 0.60884,-0.158299 1.20551,-0.474898 v 1.059388 q -0.60276,0.255714 -1.23596,0.38966 -0.63319,0.133945 -1.28466,0.133945 -1.6317,0 -2.58758,-0.949796 -0.9498,-0.949796 -0.9498,-2.5693195 0,-1.6743198 0.90109,-2.654558 0.90718,-0.9863265 2.44146,-0.9863265 1.37599,0 2.17358,0.8889116 0.80367,0.8828231 0.80367,2.404932 z m -1.12027,-0.3287755 q -0.0122,-0.9193538 -0.51752,-1.467313 -0.49925,-0.5479592 -1.32728,-0.5479592 -0.93762,0 -1.50384,0.5296939 -0.56014,0.5296939 -0.64538,1.4916667 z" />
  <path
     inkscape:connector-curvature="0"
     id="path923"
     style="font-style:normal;font-weight:normal;font-size:12.46911621px;line-height:1.25;font-family:sans-serif;letter-spacing:0px;word-spacing:0px;fill:#000000;fill-opacity:1;stroke:none;stroke-width:0.31172791"
     d="M 156.38848,6.2898571 V 7.3492449 Q 155.91359,7.1057075 155.40216,6.9839388 154.89073,6.86217 154.34277,6.86217 q -0.83412,0 -1.25422,0.2557143 -0.41401,0.2557143 -0.41401,0.7671429 0,0.3896599 0.29833,0.614932 0.29833,0.2191837 1.19942,0.4201021 l 0.38357,0.085238 q 1.19334,0.2557143 1.69259,0.7245238 0.50534,0.4627209 0.50534,1.2968369 0,0.949796 -0.75497,1.503844 -0.74887,0.554047 -2.06398,0.554047 -0.54796,0 -1.14462,-0.109592 -0.59058,-0.103503 -1.24813,-0.316598 v -1.156803 q 0.62102,0.322687 1.22377,0.487075 0.60276,0.158299 1.19334,0.158299 0.79149,0 1.21768,-0.267891 0.42619,-0.27398 0.42619,-0.767143 0,-0.456633 -0.31051,-0.70017 -0.30442,-0.243537 -1.34554,-0.4688096 l -0.38966,-0.091327 Q 152.51624,9.6324083 152.05352,9.181864 151.5908,8.7252313 151.5908,7.9337347 q 0,-0.9619728 0.6819,-1.4855783 0.68191,-0.5236054 1.93612,-0.5236054 0.62102,0 1.16898,0.091327 0.54796,0.091327 1.01068,0.2739791 z" />
  <path
     inkscape:connector-curvature="0"
     id="path925"
     style="font-style:normal;font-weight:normal;font-size:12.46911621px;line-height:1.25;font-family:sans-serif;letter-spacing:0px;word-spacing:0px;fill:#000000;fill-opacity:1;stroke:none;stroke-width:0.31172791"
     d="m 164.37651,9.2183946 v 0.5479592 h -5.15082 q 0.0731,1.1568032 0.69409,1.7656462 0.6271,0.602755 1.74129,0.602755 0.64537,0 1.24813,-0.158299 0.60884,-0.158299 1.20551,-0.474898 v 1.059388 q -0.60276,0.255714 -1.23595,0.38966 -0.6332,0.133945 -1.28466,0.133945 -1.63171,0 -2.58759,-0.949796 -0.9498,-0.949796 -0.9498,-2.5693195 0,-1.6743198 0.90109,-2.654558 0.90718,-0.9863265 2.44147,-0.9863265 1.37598,0 2.17357,0.8889116 0.80367,0.8828231 0.80367,2.404932 z m -1.12027,-0.3287755 q -0.0122,-0.9193538 -0.51752,-1.467313 -0.49925,-0.5479592 -1.32728,-0.5479592 -0.93762,0 -1.50384,0.5296939 -0.56014,0.5296939 -0.64538,1.4916667 z" />
  <path
     inkscape:connector-curvature="0"
     id="path927"
     style="font-style:normal;font-weight:normal;font-size:12.46911621px;line-height:1.25;font-family:sans-serif;letter-spacing:0px;word-spacing:0px;fill:#000000;fill-opacity:1;stroke:none;stroke-width:0.31172791"
     d="m 176.0176,9.2183946 v 0.5479592 h -5.15082 q 0.0731,1.1568032 0.69409,1.7656462 0.6271,0.602755 1.74129,0.602755 0.64537,0 1.24813,-0.158299 0.60884,-0.158299 1.20551,-0.474898 v 1.059388 q -0.60276,0.255714 -1.23595,0.38966 -0.6332,0.133945 -1.28466,0.133945 -1.63171,0 -2.58759,-0.949796 -0.9498,-0.949796 -0.9498,-2.5693195 0,-1.6743198 0.90109,-2.654558 0.90718,-0.9863265 2.44147,-0.9863265 1.37598,0 2.17357,0.8889116 0.80367,0.8828231 0.80367,2.404932 z m -1.12027,-0.3287755 q -0.0122,-0.9193538 -0.51752,-1.467313 -0.49925,-0.5479592 -1.32728,-0.5479592 -0.93762,0 -1.50384,0.5296939 -0.56014,0.5296939 -0.64538,1.4916667 z" />
  <path
     inkscape:connector-curvature="0"
     id="path929"
     style="font-style:normal;font-weight:normal;font-size:12.46911621px;line-height:1.25;font-family:sans-serif;letter-spacing:0px;word-spacing:0px;fill:#000000;fill-opacity:1;stroke:none;stroke-width:0.31172791"
     d="m 183.30545,6.0889387 -2.46581,3.3181974 2.59367,3.5008509 h -1.32119 l -1.98483,-2.678912 -1.98483,2.678912 h -1.32119 l 2.64847,-3.5678236 -2.4232,-3.2512247 h 1.32119 l 1.80827,2.4292858 1.80826,-2.4292858 z" />
  <path
     inkscape:connector-curvature="0"
     id="path931"
     style="font-style:normal;font-weight:normal;font-size:12.46911621px;line-height:1.25;font-family:sans-serif;letter-spacing:0px;word-spacing:0px;fill:#000000;fill-opacity:1;stroke:none;stroke-width:0.31172791"
     d="m 188.11532,9.4801974 q -1.35772,0 -1.88132,0.3105102 -0.52361,0.3105104 -0.52361,1.0593874 0,0.596667 0.38966,0.949796 0.39575,0.347041 1.07156,0.347041 0.93153,0 1.49167,-0.657551 0.56623,-0.663639 0.56623,-1.7595578 V 9.4801974 Z m 2.23446,-0.4627211 v 3.8905107 h -1.12027 v -1.035034 q -0.38358,0.62102 -0.95589,0.919353 -0.57231,0.292245 -1.40034,0.292245 -1.04721,0 -1.66823,-0.58449 -0.61493,-0.590578 -0.61493,-1.576904 0,-1.1507147 0.76714,-1.7352045 0.77323,-0.5844899 2.30143,-0.5844899 h 1.57082 V 8.4938708 q 0,-0.7732313 -0.51143,-1.1933334 -0.50534,-0.4261905 -1.4247,-0.4261905 -0.58449,0 -1.13853,0.140034 -0.55405,0.1400341 -1.06548,0.4201021 V 6.3994489 q 0.61493,-0.237449 1.19333,-0.3531292 0.5784,-0.1217687 1.12636,-0.1217687 1.47949,0 2.21011,0.7671428 0.73061,0.7671429 0.73061,2.3257825 z" />
  <path
     inkscape:connector-curvature="0"
     id="path933"
     style="font-style:normal;font-weight:normal;font-size:12.46911621px;line-height:1.25;font-family:sans-serif;letter-spacing:0px;word-spacing:0px;fill:#000000;fill-opacity:1;stroke:none;stroke-width:0.31172791"
     d="m 197.9725,7.3979524 q 0.4201,-0.754966 1.00459,-1.1141837 0.58449,-0.3592177 1.37598,-0.3592177 1.06548,0 1.64388,0.7488775 0.5784,0.7427892 0.5784,2.1187756 v 4.1157829 h -1.12636 V 8.8287348 q 0,-0.9802382 -0.34704,-1.4551362 -0.34704,-0.4748979 -1.05939,-0.4748979 -0.87064,0 -1.37598,0.5784013 -0.50534,0.5784014 -0.50534,1.5769049 v 3.8539801 h -1.12636 V 8.8287348 q 0,-0.9863266 -0.34704,-1.4551362 -0.34705,-0.4748979 -1.07157,-0.4748979 -0.85847,0 -1.36381,0.5844898 -0.50534,0.5784014 -0.50534,1.5708164 v 3.8539801 h -1.12636 V 6.0889387 h 1.12636 v 1.0593878 q 0.38357,-0.6271089 0.91936,-0.9254422 0.53578,-0.2983333 1.27248,-0.2983333 0.74279,0 1.2603,0.377483 0.52361,0.377483 0.77324,1.0959184 z" />
  <path
     inkscape:connector-curvature="0"
     id="path935"
     style="font-style:normal;font-weight:normal;font-size:12.46911621px;line-height:1.25;font-family:sans-serif;letter-spacing:0px;word-spacing:0px;fill:#000000;fill-opacity:1;stroke:none;stroke-width:0.31172791"
     d="m 205.89965,11.885129 v 3.616531 h -1.12636 V 6.0889387 h 1.12636 v 1.0350341 q 0.35313,-0.6088436 0.88891,-0.9010885 0.54187,-0.2983333 1.29075,-0.2983333 1.24204,0 2.01527,0.9863265 0.77932,0.9863266 0.77932,2.5936736 0,1.6073469 -0.77932,2.5936739 -0.77323,0.986326 -2.01527,0.986326 -0.74888,0 -1.29075,-0.292245 -0.53578,-0.298333 -0.88891,-0.907177 z m 3.81136,-2.3805779 q 0,-1.2359524 -0.51143,-1.9361225 -0.50534,-0.7062586 -1.39425,-0.7062586 -0.88891,0 -1.40034,0.7062586 -0.50534,0.7001701 -0.50534,1.9361225 0,1.2359529 0.50534,1.9422109 0.51143,0.70017 1.40034,0.70017 0.88891,0 1.39425,-0.70017 0.51143,-0.706258 0.51143,-1.9422109 z" />
  <path
     inkscape:connector-curvature="0"
     id="path937"
     style="font-style:normal;font-weight:normal;font-size:12.46911621px;line-height:1.25;font-family:sans-serif;letter-spacing:0px;word-spacing:0px;fill:#000000;fill-opacity:1;stroke:none;stroke-width:0.31172791"
     d="m 212.73087,3.4343808 h 1.12027 v 9.4736062 h -1.12027 z" />
  <path
     inkscape:connector-curvature="0"
     id="path939"
     style="font-style:normal;font-weight:normal;font-size:12.46911621px;line-height:1.25;font-family:sans-serif;letter-spacing:0px;word-spacing:0px;fill:#000000;fill-opacity:1;stroke:none;stroke-width:0.31172791"
     d="M 222.02181,9.2183946 V 9.7663538 H 216.871 q 0.0731,1.1568032 0.69408,1.7656462 0.62711,0.602755 1.74129,0.602755 0.64537,0 1.24813,-0.158299 0.60884,-0.158299 1.20551,-0.474898 v 1.059388 q -0.60276,0.255714 -1.23595,0.38966 -0.6332,0.133945 -1.28466,0.133945 -1.6317,0 -2.58759,-0.949796 -0.94979,-0.949796 -0.94979,-2.5693195 0,-1.6743198 0.90108,-2.654558 0.90718,-0.9863265 2.44147,-0.9863265 1.37598,0 2.17357,0.8889116 0.80367,0.8828231 0.80367,2.404932 z m -1.12027,-0.3287755 q -0.0122,-0.9193538 -0.51752,-1.467313 -0.49925,-0.5479592 -1.32728,-0.5479592 -0.93761,0 -1.50384,0.5296939 -0.56014,0.5296939 -0.64537,1.4916667 z" />
  <path
     inkscape:connector-curvature="0"
     id="path941"
     style="font-style:normal;font-weight:normal;font-size:12.46911621px;line-height:1.25;font-family:sans-serif;letter-spacing:0px;word-spacing:0px;fill:#000000;fill-opacity:1;stroke:none;stroke-width:0.31172791"
     d="M 228.20767,6.2898571 V 7.3492449 Q 227.73277,7.1057075 227.22134,6.9839388 226.70991,6.86217 226.16195,6.86217 q -0.83411,0 -1.25422,0.2557143 -0.41401,0.2557143 -0.41401,0.7671429 0,0.3896599 0.29833,0.614932 0.29834,0.2191837 1.19943,0.4201021 l 0.38357,0.085238 q 1.19333,0.2557143 1.69258,0.7245238 0.50534,0.4627209 0.50534,1.2968369 0,0.949796 -0.75496,1.503844 -0.74888,0.554047 -2.06398,0.554047 -0.54796,0 -1.14463,-0.109592 -0.59058,-0.103503 -1.24813,-0.316598 v -1.156803 q 0.62102,0.322687 1.22378,0.487075 0.60275,0.158299 1.19333,0.158299 0.7915,0 1.21769,-0.267891 0.42619,-0.27398 0.42619,-0.767143 0,-0.456633 -0.31051,-0.70017 -0.30442,-0.243537 -1.34555,-0.4688096 l -0.38966,-0.091327 q -1.04112,-0.2191836 -1.50384,-0.6697279 -0.46272,-0.4566327 -0.46272,-1.2481293 0,-0.9619728 0.6819,-1.4855783 0.68191,-0.5236054 1.93613,-0.5236054 0.62102,0 1.16898,0.091327 0.54796,0.091327 1.01068,0.2739796 z" />
  <path
     inkscape:connector-curvature="0"
     id="path943"
     style="font-style:normal;font-weight:normal;font-size:12.46911621px;line-height:1.25;font-family:sans-serif;letter-spacing:0px;word-spacing:0px;fill:#000000;fill-opacity:1;stroke:none;stroke-width:0.31172791"
     d="m 68.234023,19.020776 v 0.931531 h -1.071565 q -0.602755,0 -0.840204,0.243537 -0.231361,0.243538 -0.231361,0.876735 v 0.602755 h 1.844796 v 0.870646 h -1.844796 v 5.948402 h -1.12636 V 22.54598 h -1.071565 v -0.870646 h 1.071565 v -0.474898 q 0,-1.138537 0.529694,-1.656055 0.529693,-0.523605 1.680408,-0.523605 z" />
  <path
     inkscape:connector-curvature="0"
     id="path945"
     style="font-style:normal;font-weight:normal;font-size:12.46911621px;line-height:1.25;font-family:sans-serif;letter-spacing:0px;word-spacing:0px;fill:#000000;fill-opacity:1;stroke:none;stroke-width:0.31172791"
     d="m 73.116948,22.722545 q -0.188741,-0.109592 -0.414014,-0.158299 -0.219183,-0.0548 -0.487074,-0.0548 -0.949796,0 -1.461225,0.62102 -0.50534,0.614932 -0.50534,1.771735 v 3.592177 H 69.122934 V 21.67533 h 1.126361 v 1.059388 q 0.353129,-0.621021 0.919354,-0.919354 0.566224,-0.304422 1.375986,-0.304422 0.11568,0 0.255714,0.01827 0.140034,0.01218 0.310511,0.04262 z" />
  <path
     inkscape:connector-curvature="0"
     id="path947"
     style="font-style:normal;font-weight:normal;font-size:12.46911621px;line-height:1.25;font-family:sans-serif;letter-spacing:0px;word-spacing:0px;fill:#000000;fill-opacity:1;stroke:none;stroke-width:0.31172791"
     d="m 76.678683,22.460742 q -0.901089,0 -1.424694,0.706259 -0.523606,0.70017 -0.523606,1.923945 0,1.223776 0.517517,1.930034 0.523606,0.700171 1.430783,0.700171 0.895,0 1.418605,-0.706259 0.523606,-0.706258 0.523606,-1.923946 0,-1.211598 -0.523606,-1.917857 -0.523605,-0.712347 -1.418605,-0.712347 z m 0,-0.949796 q 1.461224,0 2.29534,0.949796 0.834116,0.949796 0.834116,2.630204 0,1.67432 -0.834116,2.630205 -0.834116,0.949796 -2.29534,0.949796 -1.467313,0 -2.301429,-0.949796 -0.828027,-0.955885 -0.828027,-2.630205 0,-1.680408 0.828027,-2.630204 0.834116,-0.949796 2.301429,-0.949796 z" />
  <path
     inkscape:connector-curvature="0"
     id="path949"
     style="font-style:normal;font-weight:normal;font-size:12.46911621px;line-height:1.25;font-family:sans-serif;letter-spacing:0px;word-spacing:0px;fill:#000000;fill-opacity:1;stroke:none;stroke-width:0.31172791"
     d="m 86.968139,22.984348 q 0.420102,-0.754966 1.004592,-1.114184 0.58449,-0.359218 1.375987,-0.359218 1.065476,0 1.643877,0.748878 0.578402,0.742789 0.578402,2.118775 v 4.115783 H 90.444636 V 24.41513 q 0,-0.980238 -0.347041,-1.455136 -0.347041,-0.474898 -1.059388,-0.474898 -0.870646,0 -1.375986,0.578401 -0.50534,0.578402 -0.50534,1.576905 v 3.85398 H 86.03052 V 24.41513 q 0,-0.986327 -0.347041,-1.455136 -0.34704,-0.474898 -1.071564,-0.474898 -0.85847,0 -1.36381,0.58449 -0.50534,0.578401 -0.50534,1.570816 v 3.85398 h -1.126361 v -6.819048 h 1.126361 v 1.059388 q 0.383571,-0.627109 0.919354,-0.925442 0.535782,-0.298334 1.272483,-0.298334 0.742789,0 1.260306,0.377483 0.523605,0.377483 0.773231,1.095919 z" />
  <path
     inkscape:connector-curvature="0"
     id="path951"
     style="font-style:normal;font-weight:normal;font-size:12.46911621px;line-height:1.25;font-family:sans-serif;letter-spacing:0px;word-spacing:0px;fill:#000000;fill-opacity:1;stroke:none;stroke-width:0.31172791"
     d="m 100.88021,25.066593 q -1.357717,0 -1.881322,0.31051 -0.523606,0.31051 -0.523606,1.059388 0,0.596666 0.38966,0.949796 0.395748,0.34704 1.071565,0.34704 0.931533,0 1.491663,-0.657551 0.56623,-0.663639 0.56623,-1.759558 v -0.249625 z m 2.23446,-0.462721 v 3.89051 h -1.12027 v -1.035034 q -0.38357,0.62102 -0.95589,0.919354 -0.57231,0.292245 -1.400337,0.292245 -1.04721,0 -1.668231,-0.58449 -0.614932,-0.590579 -0.614932,-1.576905 0,-1.150714 0.767143,-1.735204 0.773231,-0.58449 2.301427,-0.58449 h 1.57082 v -0.109592 q 0,-0.773231 -0.51143,-1.193333 -0.50534,-0.426191 -1.42469,-0.426191 -0.584494,0 -1.138542,0.140034 -0.554048,0.140034 -1.065476,0.420102 v -1.035034 q 0.614932,-0.237449 1.193333,-0.353129 0.578402,-0.121769 1.126365,-0.121769 1.47949,0 2.2101,0.767143 0.73061,0.767143 0.73061,2.325783 z" />
  <path
     inkscape:connector-curvature="0"
     id="path953"
     style="font-style:normal;font-weight:normal;font-size:12.46911621px;line-height:1.25;font-family:sans-serif;letter-spacing:0px;word-spacing:0px;fill:#000000;fill-opacity:1;stroke:none;stroke-width:0.31172791"
     d="m 109.37967,22.722545 q -0.18874,-0.109592 -0.41401,-0.158299 -0.21919,-0.0548 -0.48708,-0.0548 -0.94979,0 -1.46122,0.62102 -0.50534,0.614932 -0.50534,1.771735 v 3.592177 h -1.12636 V 21.67533 h 1.12636 v 1.059388 q 0.35313,-0.621021 0.91935,-0.919354 0.56623,-0.304422 1.37599,-0.304422 0.11568,0 0.25571,0.01827 0.14004,0.01218 0.31051,0.04262 z" />
  <path
     inkscape:connector-curvature="0"
     id="path955"
     style="font-style:normal;font-weight:normal;font-size:12.46911621px;line-height:1.25;font-family:sans-serif;letter-spacing:0px;word-spacing:0px;fill:#000000;fill-opacity:1;stroke:none;stroke-width:0.31172791"
     d="m 112.9414,22.460742 q -0.90108,0 -1.42469,0.706259 -0.52361,0.70017 -0.52361,1.923945 0,1.223776 0.51752,1.930034 0.52361,0.700171 1.43078,0.700171 0.895,0 1.41861,-0.706259 0.5236,-0.706258 0.5236,-1.923946 0,-1.211598 -0.5236,-1.917857 -0.52361,-0.712347 -1.41861,-0.712347 z m 0,-0.949796 q 1.46123,0 2.29534,0.949796 0.83412,0.949796 0.83412,2.630204 0,1.67432 -0.83412,2.630205 -0.83411,0.949796 -2.29534,0.949796 -1.46731,0 -2.30142,-0.949796 -0.82803,-0.955885 -0.82803,-2.630205 0,-1.680408 0.82803,-2.630204 0.83411,-0.949796 2.30142,-0.949796 z" />
  <path
     inkscape:connector-curvature="0"
     id="path957"
     style="font-style:normal;font-weight:normal;font-size:12.46911621px;line-height:1.25;font-family:sans-serif;letter-spacing:0px;word-spacing:0px;fill:#000000;fill-opacity:1;stroke:none;stroke-width:0.31172791"
     d="m 117.80607,25.803293 v -4.127959 h 1.12027 v 4.08534 q 0,0.968062 0.37748,1.455136 0.37748,0.480987 1.13245,0.480987 0.90718,0 1.43078,-0.578402 0.5297,-0.578401 0.5297,-1.576904 v -3.866157 h 1.12027 v 6.819048 h -1.12027 v -1.047211 q -0.40793,0.62102 -0.9498,0.925442 -0.53578,0.298334 -1.24813,0.298334 -1.17507,0 -1.78391,-0.730613 -0.60884,-0.730612 -0.60884,-2.137041 z m 2.81894,-4.292347 z" />
  <path
     inkscape:connector-curvature="0"
     id="path959"
     style="font-style:normal;font-weight:normal;font-size:12.46911621px;line-height:1.25;font-family:sans-serif;letter-spacing:0px;word-spacing:0px;fill:#000000;fill-opacity:1;stroke:none;stroke-width:0.31172791"
     d="m 131.50505,24.378599 v 4.115783 h -1.12028 V 24.41513 q 0,-0.968061 -0.37748,-1.449048 -0.37748,-0.480986 -1.13245,-0.480986 -0.90718,0 -1.43078,0.578401 -0.52361,0.578402 -0.52361,1.576905 v 3.85398 h -1.12636 v -6.819048 h 1.12636 v 1.059388 q 0.40184,-0.614932 0.94371,-0.919354 0.54796,-0.304422 1.26031,-0.304422 1.17507,0 1.77782,0.730612 0.60276,0.724524 0.60276,2.137041 z" />
  <path
     inkscape:connector-curvature="0"
     id="path961"
     style="font-style:normal;font-weight:normal;font-size:12.46911621px;line-height:1.25;font-family:sans-serif;letter-spacing:0px;word-spacing:0px;fill:#000000;fill-opacity:1;stroke:none;stroke-width:0.31172791"
     d="m 138.23886,22.710368 v -3.689592 h 1.12027 v 9.473606 h -1.12027 v -1.022857 q -0.35313,0.608843 -0.895,0.907177 -0.53578,0.292245 -1.29075,0.292245 -1.23595,0 -2.01527,-0.986327 -0.77323,-0.986327 -0.77323,-2.593674 0,-1.607347 0.77323,-2.593673 0.77932,-0.986327 2.01527,-0.986327 0.75497,0 1.29075,0.298334 0.54187,0.292244 0.895,0.901088 z m -3.81745,2.380578 q 0,1.235953 0.50534,1.942211 0.51143,0.70017 1.40034,0.70017 0.88891,0 1.40034,-0.70017 0.51143,-0.706258 0.51143,-1.942211 0,-1.235952 -0.51143,-1.936122 -0.51143,-0.706259 -1.40034,-0.706259 -0.88891,0 -1.40034,0.706259 -0.50534,0.70017 -0.50534,1.936122 z" />
  <path
     inkscape:connector-curvature="0"
     id="path963"
     style="font-style:normal;font-weight:normal;font-size:12.46911621px;line-height:1.25;font-family:sans-serif;letter-spacing:0px;word-spacing:0px;fill:#000000;fill-opacity:1;stroke:none;stroke-width:0.31172791"
     d="m 146.7444,19.739211 v 1.936123 h 2.30752 v 0.870646 h -2.30752 v 3.701769 q 0,0.834116 0.22527,1.071565 0.23136,0.237449 0.93153,0.237449 h 1.15072 v 0.937619 h -1.15072 q -1.29684,0 -1.79,-0.480987 -0.49316,-0.487074 -0.49316,-1.765646 V 22.54598 h -0.82194 v -0.870646 h 0.82194 v -1.936123 z" />
  <path
     inkscape:connector-curvature="0"
     id="path965"
     style="font-style:normal;font-weight:normal;font-size:12.46911621px;line-height:1.25;font-family:sans-serif;letter-spacing:0px;word-spacing:0px;fill:#000000;fill-opacity:1;stroke:none;stroke-width:0.31172791"
     d="m 156.19974,24.378599 v 4.115783 h -1.12027 V 24.41513 q 0,-0.968061 -0.37748,-1.449048 -0.37749,-0.480986 -1.13245,-0.480986 -0.90718,0 -1.43079,0.578401 -0.5236,0.578402 -0.5236,1.576905 v 3.85398 h -1.12636 v -9.473606 h 1.12636 v 3.713946 q 0.40183,-0.614932 0.94371,-0.919354 0.54795,-0.304422 1.2603,-0.304422 1.17507,0 1.77783,0.730612 0.60275,0.724524 0.60275,2.137041 z" />
  <path
     inkscape:connector-curvature="0"
     id="path967"
     style="font-style:normal;font-weight:normal;font-size:12.46911621px;line-height:1.25;font-family:sans-serif;letter-spacing:0px;word-spacing:0px;fill:#000000;fill-opacity:1;stroke:none;stroke-width:0.31172791"
     d="m 164.2791,24.80479 v 0.547959 h -5.15082 q 0.0731,1.156803 0.69408,1.765646 0.62711,0.602756 1.7413,0.602756 0.64537,0 1.24813,-0.1583 0.60884,-0.158299 1.20551,-0.474898 v 1.059388 q -0.60276,0.255714 -1.23596,0.38966 -0.63319,0.133946 -1.28466,0.133946 -1.6317,0 -2.58758,-0.949796 -0.9498,-0.949796 -0.9498,-2.56932 0,-1.67432 0.90109,-2.654558 0.90718,-0.986327 2.44146,-0.986327 1.37599,0 2.17357,0.888912 0.80368,0.882823 0.80368,2.404932 z m -1.12027,-0.328776 q -0.0122,-0.919353 -0.51752,-1.467313 -0.49925,-0.547959 -1.32728,-0.547959 -0.93762,0 -1.50384,0.529694 -0.56014,0.529694 -0.64538,1.491667 z" />
  <path
     inkscape:connector-curvature="0"
     id="path969"
     style="font-style:normal;font-weight:normal;font-size:12.46911621px;line-height:1.25;font-family:sans-serif;letter-spacing:0px;word-spacing:0px;fill:#000000;fill-opacity:1;stroke:none;stroke-width:0.31172791"
     d="m 169.32641,19.404347 h 1.24204 l 1.91177,7.683606 1.90568,-7.683606 h 1.38208 l 1.91177,7.683606 1.90568,-7.683606 h 1.24813 l -2.28317,9.090035 h -1.54646 l -1.91786,-7.890613 -1.93612,7.890613 h -1.54646 z" />
  <path
     inkscape:connector-curvature="0"
     id="path971"
     style="font-style:normal;font-weight:normal;font-size:12.46911621px;line-height:1.25;font-family:sans-serif;letter-spacing:0px;word-spacing:0px;fill:#000000;fill-opacity:1;stroke:none;stroke-width:0.31172791"
     d="m 187.51257,24.80479 v 0.547959 h -5.15082 q 0.0731,1.156803 0.69408,1.765646 0.62711,0.602756 1.74129,0.602756 0.64538,0 1.24813,-0.1583 0.60885,-0.158299 1.20551,-0.474898 v 1.059388 q -0.60275,0.255714 -1.23595,0.38966 -0.6332,0.133946 -1.28466,0.133946 -1.6317,0 -2.58758,-0.949796 -0.9498,-0.949796 -0.9498,-2.56932 0,-1.67432 0.90109,-2.654558 0.90717,-0.986327 2.44146,-0.986327 1.37599,0 2.17357,0.888912 0.80368,0.882823 0.80368,2.404932 z m -1.12028,-0.328776 q -0.0122,-0.919353 -0.51751,-1.467313 -0.49926,-0.547959 -1.32728,-0.547959 -0.93762,0 -1.50385,0.529694 -0.56013,0.529694 -0.64537,1.491667 z" />
  <path
     inkscape:connector-curvature="0"
     id="path973"
     style="font-style:normal;font-weight:normal;font-size:12.46911621px;line-height:1.25;font-family:sans-serif;letter-spacing:0px;word-spacing:0px;fill:#000000;fill-opacity:1;stroke:none;stroke-width:0.31172791"
     d="m 194.24638,25.090946 q 0,-1.235952 -0.51143,-1.936122 -0.50534,-0.706259 -1.39425,-0.706259 -0.88891,0 -1.40034,0.706259 -0.50534,0.70017 -0.50534,1.936122 0,1.235953 0.50534,1.942211 0.51143,0.70017 1.40034,0.70017 0.88891,0 1.39425,-0.70017 0.51143,-0.706258 0.51143,-1.942211 z m -3.81136,-2.380578 q 0.35313,-0.608844 0.88891,-0.901088 0.54187,-0.298334 1.29075,-0.298334 1.24204,0 2.01527,0.986327 0.77932,0.986326 0.77932,2.593673 0,1.607347 -0.77932,2.593674 -0.77323,0.986327 -2.01527,0.986327 -0.74888,0 -1.29075,-0.292245 -0.53578,-0.298334 -0.88891,-0.907177 v 1.022857 h -1.12636 v -9.473606 h 1.12636 z" />
  <path
     inkscape:connector-curvature="0"
     id="path975"
     style="font-style:normal;font-weight:normal;font-size:12.46911621px;line-height:1.25;font-family:sans-serif;letter-spacing:0px;word-spacing:0px;fill:#000000;fill-opacity:1;stroke:none;stroke-width:0.31172791"
     d="m 197.42454,26.947919 h 1.28466 v 1.546463 h -1.28466 z" />
</svg>
