<svg width="21" height="20" viewBox="0 0 21 20" fill="none" xmlns="http://www.w3.org/2000/svg">
<path d="M18.9678 4.71327C18.3316 4.99468 17.657 5.1795 16.9662 5.26161C17.6943 4.82613 18.2392 4.14078 18.4995 3.33327C17.8162 3.73994 17.067 4.02494 16.2862 4.17911C15.7617 3.61792 15.0665 3.24574 14.3086 3.12043C13.5508 2.99511 12.7728 3.12368 12.0955 3.48615C11.4183 3.84862 10.8798 4.42467 10.5638 5.12477C10.2477 5.82486 10.1718 6.60976 10.3478 7.35744C8.96208 7.28798 7.60644 6.92787 6.3689 6.30049C5.13136 5.67311 4.0396 4.79248 3.16449 3.71577C2.85474 4.24781 2.69196 4.85263 2.69283 5.46827C2.69283 6.6766 3.30783 7.7441 4.24283 8.3691C3.6895 8.35169 3.14835 8.20226 2.66449 7.93327V7.9766C2.66466 8.78135 2.94314 9.56128 3.4527 10.1842C3.96227 10.807 4.67156 11.2345 5.46033 11.3941C4.94667 11.5333 4.40808 11.5538 3.88533 11.4541C4.10772 12.1468 4.54117 12.7526 5.12499 13.1867C5.70881 13.6208 6.41377 13.8614 7.14116 13.8749C6.41823 14.4427 5.59047 14.8624 4.70523 15.1101C3.81998 15.3577 2.8946 15.4285 1.98199 15.3183C3.57508 16.3428 5.42957 16.8867 7.32366 16.8849C13.7345 16.8849 17.2403 11.5741 17.2403 6.96827C17.2403 6.81827 17.2362 6.6666 17.2295 6.51827C17.9119 6.02508 18.5008 5.41412 18.9687 4.71411L18.9678 4.71327Z" fill="white"/>
</svg>
